<svg width="20" height="20" viewBox="0 0 20 20" fill="none" xmlns="http://www.w3.org/2000/svg">
<path d="M16.75 5.375H13.3837C13.4405 5.0868 13.4689 4.79374 13.4687 4.5C13.4687 2.62836 12.0987 1.25 9.87496 1.25C8.10488 1.25 7.64832 3.14598 6.91766 4.3275C6.61551 4.81238 6.25383 5.23832 5.90785 5.62645L5.90273 5.63215L5.8977 5.63793C5.2993 6.32059 4.99078 6.5625 4.71875 6.5625H4.6141C4.38961 6.36906 4.08535 6.25 3.75004 6.25H1.25C0.559648 6.25 0 6.75367 0 7.375V16.375C0 16.9963 0.559648 17.5 1.25 17.5H3.75C4.08531 17.5 4.38957 17.3809 4.61406 17.1875H4.71871C5.83934 17.1875 7.34125 18.75 9.68746 18.75H10.5195C12.9625 18.75 14.3788 17.2399 14.4234 15.1896C14.9109 14.4938 15.1457 13.5965 15.0478 12.7369C15.1869 12.4638 15.291 12.1742 15.3575 11.875H16.75C18.5248 11.875 20 10.4069 20 8.625C20 6.86332 18.5117 5.375 16.75 5.375ZM16.75 10H13.1943C13.6957 10.573 13.7574 11.6729 13.0009 12.3848C13.4395 13.1522 13.0668 14.167 12.4961 14.4795C12.7509 16.0079 12.1025 16.875 10.5195 16.875H9.6875C7.91051 16.875 6.67148 15.4721 5 15.3252V8.42074C5.9859 8.30496 6.67836 7.59176 7.30762 6.87402C7.74805 6.37988 8.15625 5.88574 8.5107 5.31641C9.07637 4.40281 9.53148 3.125 9.875 3.125C10.7881 3.125 11.5938 3.46875 11.5938 4.5C11.5938 5.875 10.5625 6.57324 10.5625 7.25H16.75C17.4697 7.25 18.125 7.89453 18.125 8.625C18.125 9.36621 17.4912 10 16.75 10ZM3.4375 15C3.4375 15.5178 3.01777 15.9375 2.5 15.9375C1.98223 15.9375 1.5625 15.5178 1.5625 15C1.5625 14.4822 1.98223 14.0625 2.5 14.0625C3.01777 14.0625 3.4375 14.4822 3.4375 15Z" fill="#467AFF"/>
</svg>
