<svg width="80" height="80" viewBox="0 0 80 80" fill="none" xmlns="http://www.w3.org/2000/svg">
<path d="M70.8004 39.775L69.2754 38.225L68.6504 37.625C69.4552 35.1591 69.9096 32.5923 70.0004 30C70.0004 24.6957 67.8932 19.6086 64.1425 15.8579C60.3918 12.1071 55.3047 10 50.0004 10H40.8004C39.7629 10 38.7429 10.25 37.8254 10.725C36.7054 10.45 35.5704 10.25 34.4254 10.125H32.5004C27.1961 10.125 22.109 12.2321 18.3582 15.9829C14.6075 19.7336 12.5004 24.8207 12.5004 30.125V35.375L9.52538 38.25C8.57054 39.2162 7.92213 40.4428 7.66145 41.776C7.40077 43.1091 7.5394 44.4896 8.05997 45.7443C8.58054 46.999 9.45989 48.0721 10.5878 48.8292C11.7157 49.5863 13.042 49.9935 14.4004 50C14.6904 50.025 14.9829 50.025 15.2754 50C15.5854 51.1575 16.1879 52.215 17.0254 53.075C18.1808 54.1977 19.6938 54.8791 21.3004 55C21.4391 56.612 22.1379 58.1245 23.2754 59.275C24.4156 60.4236 25.9356 61.1169 27.5504 61.225C27.6696 62.837 28.3612 64.3532 29.5004 65.5C30.7003 66.7088 32.3076 67.4272 34.0086 67.515C35.7096 67.6028 37.3823 67.0538 38.7004 65.975L40.7504 68C41.3893 68.6425 42.1489 69.1524 42.9855 69.5003C43.8221 69.8482 44.7193 70.0273 45.6254 70.0273C46.5315 70.0273 47.4286 69.8482 48.2653 69.5003C49.1019 69.1524 49.8615 68.6425 50.5004 68C51.6728 66.8612 52.3848 65.3304 52.5004 63.7C54.1152 63.5919 55.6351 62.8986 56.7754 61.75C57.8893 60.5986 58.5696 59.0967 58.7004 57.5C60.3123 57.3613 61.8249 56.6625 62.9754 55.525C63.889 54.6139 64.5223 53.46 64.8004 52.2C65.8879 52.3887 67.0052 52.3048 68.0523 51.9557C69.0994 51.6067 70.0436 51.0034 70.8004 50.2C71.4875 49.5169 72.0327 48.7048 72.4048 47.8102C72.7769 46.9156 72.9685 45.9564 72.9685 44.9875C72.9685 44.0186 72.7769 43.0594 72.4048 42.1648C72.0327 41.2702 71.4875 40.4581 70.8004 39.775V39.775ZM40.8004 15H50.0004C53.9786 15 57.7939 16.5804 60.607 19.3934C63.42 22.2064 65.0004 26.0218 65.0004 30C64.9564 31.1861 64.8058 32.3659 64.5504 33.525L54.2754 23.225C54.0417 22.9934 53.7646 22.8102 53.4601 22.6858C53.1555 22.5614 52.8294 22.4982 52.5004 22.5H41.3004C40.7394 22.4962 40.1935 22.6811 39.7504 23.025L34.7504 26.85C34.1163 27.2819 33.3418 27.4568 32.5837 27.3392C31.8256 27.2216 31.1405 26.8203 30.667 26.2166C30.1936 25.6129 29.9673 24.8519 30.0338 24.0876C30.1003 23.3233 30.4548 22.6128 31.0254 22.1L39.6504 15.35C39.9761 15.0929 40.3867 14.9679 40.8004 15V15ZM13.0504 44.475C12.702 44.1119 12.5075 43.6282 12.5075 43.125C12.5075 42.6218 12.702 42.1381 13.0504 41.775L16.7754 38.05C16.9523 37.8728 17.1629 37.7329 17.3947 37.6384C17.6266 37.544 17.875 37.4969 18.1254 37.5C18.3719 37.4974 18.6165 37.5448 18.8442 37.6393C19.0719 37.7339 19.2781 37.8736 19.4504 38.05C19.6288 38.2267 19.7704 38.4369 19.867 38.6686C19.9637 38.9004 20.0134 39.1489 20.0134 39.4C20.0134 39.6511 19.9637 39.8996 19.867 40.1313C19.7704 40.3631 19.6288 40.5733 19.4504 40.75L15.7504 44.475C15.3817 44.8123 14.9001 44.9994 14.4004 44.9994C13.9007 44.9994 13.4191 44.8123 13.0504 44.475V44.475ZM20.0004 48.125C19.9995 47.8764 20.0502 47.6303 20.1491 47.4023C20.2481 47.1743 20.3932 46.9692 20.5754 46.8L24.2754 43.075C24.6301 42.717 25.1125 42.5145 25.6165 42.5121C26.1205 42.5098 26.6048 42.7078 26.9629 43.0625C27.3209 43.4172 27.5234 43.8997 27.5257 44.4037C27.5281 44.9077 27.3301 45.392 26.9754 45.75L23.2504 49.475C23.0269 49.6915 22.7543 49.8507 22.4558 49.9388C22.1574 50.0269 21.842 50.0413 21.5368 49.9809C21.2315 49.9204 20.9455 49.7869 20.7032 49.5916C20.4608 49.3964 20.2694 49.1454 20.1454 48.86C20.0467 48.6277 19.9974 48.3774 20.0004 48.125ZM26.8004 53.125L30.5254 49.4C30.7023 49.2228 30.9129 49.0829 31.1447 48.9884C31.3766 48.894 31.625 48.8469 31.8754 48.85C32.1219 48.8474 32.3665 48.8948 32.5942 48.9893C32.8219 49.0839 33.0281 49.2236 33.2004 49.4C33.3788 49.5767 33.5204 49.7869 33.617 50.0186C33.7137 50.2504 33.7634 50.4989 33.7634 50.75C33.7634 51.0011 33.7137 51.2496 33.617 51.4814C33.5204 51.7131 33.3788 51.9233 33.2004 52.1L29.5004 55.725C29.1389 56.066 28.6588 56.2527 28.1619 56.2454C27.665 56.2382 27.1906 56.0376 26.8392 55.6862C26.4878 55.3348 26.2872 54.8603 26.28 54.3635C26.2727 53.8666 26.4594 53.3865 26.8004 53.025V53.125V53.125ZM33.0504 62.05C32.872 61.8733 32.7304 61.6631 32.6338 61.4314C32.5371 61.1996 32.4874 60.9511 32.4874 60.7C32.4874 60.4489 32.5371 60.2004 32.6338 59.9686C32.7304 59.7369 32.872 59.5267 33.0504 59.35L36.7504 55.65C37.1084 55.2899 37.5927 55.0836 38.1004 55.075C38.3501 55.0763 38.5971 55.1268 38.8273 55.2237C39.0575 55.3205 39.2663 55.4618 39.4419 55.6394C39.6174 55.8171 39.7562 56.0276 39.8503 56.2589C39.9444 56.4902 39.992 56.7378 39.9904 56.9875C39.9905 57.4865 39.7969 57.966 39.4504 58.325L35.7254 62.05C35.3537 62.3836 34.8668 62.5597 34.3677 62.5411C33.8685 62.5224 33.3962 62.3105 33.0504 61.95V62.05V62.05ZM65.5504 47.35C64.6139 47.0978 63.7548 46.6167 63.0504 45.95V45.825L58.0504 40.825C57.5796 40.3542 56.9411 40.0898 56.2754 40.0898C55.6096 40.0898 54.9711 40.3542 54.5004 40.825C54.0296 41.2958 53.7652 41.9342 53.7652 42.6C53.7652 43.2658 54.0296 43.9042 54.5004 44.375L59.5004 49.375C59.8017 49.7394 59.9562 50.2031 59.9339 50.6754C59.9115 51.1478 59.7139 51.5948 59.3795 51.9291C59.0452 52.2635 58.5981 52.4612 58.1258 52.4835C57.6535 52.5059 57.1898 52.3513 56.8254 52.05C56.5966 51.8055 56.321 51.6094 56.015 51.4734C55.7091 51.3373 55.3789 51.264 55.0441 51.2579C54.7093 51.2518 54.3767 51.3129 54.0659 51.4377C53.7551 51.5624 53.4726 51.7483 53.235 51.9842C52.9974 52.2202 52.8095 52.5014 52.6826 52.8113C52.5556 53.1211 52.4921 53.4533 52.4959 53.7882C52.4997 54.123 52.5706 54.4537 52.7045 54.7606C52.8384 55.0675 53.0325 55.3445 53.2754 55.575C53.453 55.7495 53.5941 55.9577 53.6904 56.1873C53.7867 56.417 53.8363 56.6635 53.8363 56.9125C53.8363 57.1615 53.7867 57.408 53.6904 57.6377C53.5941 57.8673 53.453 58.0755 53.2754 58.25C53.0987 58.4284 52.8884 58.57 52.6567 58.6666C52.425 58.7633 52.1764 58.813 51.9254 58.813C51.6743 58.813 51.4257 58.7633 51.194 58.6666C50.9623 58.57 50.752 58.4284 50.5754 58.25C50.107 57.7844 49.4733 57.523 48.8129 57.523C48.1524 57.523 47.5188 57.7844 47.0504 58.25C46.5848 58.7184 46.3234 59.352 46.3234 60.0125C46.3234 60.673 46.5848 61.3066 47.0504 61.775C47.4084 62.1297 47.6109 62.6122 47.6132 63.1162C47.6156 63.6202 47.4176 64.1045 47.0629 64.4625C46.7082 64.8205 46.2257 65.023 45.7217 65.0253C45.2177 65.0277 44.7334 64.8297 44.3754 64.475L42.3754 62.475L43.0754 61.8C43.7186 61.159 44.229 60.3973 44.5773 59.5585C44.9256 58.7198 45.1048 57.8206 45.1048 56.9125C45.1048 56.0044 44.9256 55.1052 44.5773 54.2665C44.229 53.4277 43.7186 52.666 43.0754 52.025C41.9147 50.8364 40.3577 50.1158 38.7004 50C38.5812 48.388 37.8895 46.8718 36.7504 45.725C35.599 44.6111 34.0971 43.9308 32.5004 43.8C32.3617 42.188 31.6629 40.6755 30.5254 39.525C29.7857 38.7629 28.8789 38.1832 27.8766 37.8317C26.8743 37.4803 25.8041 37.3667 24.7504 37.5C24.3406 35.9367 23.3836 34.5723 22.0531 33.6547C20.7227 32.7372 19.1073 32.3275 17.5004 32.5V30C17.4988 26.0943 19.0207 22.342 21.7425 19.5409C24.4642 16.7397 28.1713 15.1107 32.0754 15L28.0754 18.125C26.4357 19.4472 25.3816 21.3611 25.1406 23.4537C24.8996 25.5462 25.4909 27.6497 26.7871 29.3101C28.0832 30.9704 29.9802 32.0546 32.0687 32.3287C34.1572 32.6028 36.2697 32.0447 37.9504 30.775L42.1504 27.5H51.4754L61.3254 37.5L67.2504 43.4C67.665 43.8594 67.8945 44.4562 67.8945 45.075C67.8945 45.6938 67.665 46.2906 67.2504 46.75C67.0343 46.9882 66.7559 47.1612 66.4467 47.2496C66.1375 47.3379 65.8097 47.3381 65.5004 47.25L65.5504 47.35V47.35Z" fill="#467AFF"/>
</svg>
