<svg width="80" height="80" viewBox="0 0 80 80" fill="none" xmlns="http://www.w3.org/2000/svg">
<path d="M24.7825 35.4223L26.9825 35.7334L24.7825 35.4223ZM24.7381 35.7334L22.5381 35.4223L24.7381 35.7334ZM55.2181 35.4223L57.4181 35.1112L55.2181 35.4223ZM55.2626 35.7334L53.0626 36.0445L55.2626 35.7334ZM48.8892 62.2223V64.4445C49.4786 64.4445 50.0438 64.2104 50.4606 63.7937C50.8773 63.3769 51.1114 62.8117 51.1114 62.2223H48.8892ZM31.1114 62.2223H28.8892C28.8892 62.8117 29.1233 63.3769 29.5401 63.7937C29.9568 64.2104 30.5221 64.4445 31.1114 64.4445V62.2223ZM27.8003 47.3467L29.5603 45.9868L27.8003 47.3467ZM52.2003 47.3467L50.4403 45.9868L52.2003 47.3467ZM33.3337 73.3334H46.667V68.889H33.3337V73.3334ZM22.5781 35.1112L22.5337 35.4223L26.9337 36.0445L26.9781 35.7334L22.5781 35.1112ZM40.0003 20.0001C35.7636 19.9994 31.6689 21.5274 28.4683 24.3033C25.2678 27.0793 23.1763 30.9169 22.5781 35.1112L26.9781 35.7334C27.4264 32.5994 28.9902 29.7324 31.3823 27.6586C33.7745 25.5849 36.8344 24.4437 40.0003 24.4445V20.0001ZM57.4226 35.1112C56.8243 30.9169 54.7329 27.0793 51.5323 24.3033C48.3317 21.5274 44.237 19.9994 40.0003 20.0001V24.4445C43.166 24.4446 46.2254 25.5861 48.6174 27.6597C51.0093 29.7333 52.5734 32.5998 53.0226 35.7334L57.4226 35.1112ZM57.467 35.4223L57.4226 35.1112L53.0226 35.7334L53.067 36.0445L57.467 35.4223ZM53.9559 48.7067C56.7559 45.089 58.1692 40.3734 57.467 35.4179L53.067 36.049C53.3215 37.7967 53.2205 39.5777 52.7699 41.2854C52.3193 42.9931 51.5284 44.5922 50.4448 45.9868L53.9559 48.7067ZM46.667 55.1112V62.2223H51.1114V55.1156H46.667V55.1112ZM48.8892 60.0001H31.1114V64.4445H48.8892V60.0001ZM33.3337 62.2223V55.1156H28.8892V62.2223H33.3337ZM22.5337 35.4223C22.1958 37.7589 22.3326 40.1397 22.9359 42.4222C23.5392 44.7047 24.5965 46.8422 26.0448 48.7067L29.5559 45.9868C28.4722 44.5922 27.6814 42.9931 27.2308 41.2854C26.7802 39.5777 26.6791 37.7967 26.9337 36.049L22.5337 35.4179V35.4223ZM33.3337 55.1112C33.3337 51.4534 31.387 48.3423 29.5559 45.9823L26.0448 48.7023C27.747 50.9023 28.8892 53.0045 28.8892 55.1112H33.3337ZM50.4448 45.9823C48.6092 48.3467 46.667 51.4534 46.667 55.1112H51.1114C51.1114 53.0045 52.2537 50.9023 53.9559 48.7023L50.4448 45.9823V45.9823ZM37.7781 6.66675V15.5556H42.2225V6.66675H37.7781ZM6.66699 42.2223H15.5559V37.7779H6.66699V42.2223ZM64.4448 42.2223H73.3337V37.7779H64.4448V42.2223ZM21.5737 22.8712L14.907 16.2045L11.7603 19.3512L18.427 26.0179L21.5737 22.8712ZM61.5737 26.0179L68.2403 19.3512L65.0937 16.2045L58.427 22.8712L61.5737 26.0179Z" fill="#467AFF"/>
</svg>
