<svg width="32" height="32" viewBox="0 0 32 32" fill="none" xmlns="http://www.w3.org/2000/svg">
<path d="M20.3296 21.48L22.5696 19.24C22.8713 18.942 23.2531 18.7381 23.6684 18.6529C24.0838 18.5676 24.515 18.6049 24.9096 18.76L27.6396 19.85C28.0385 20.0119 28.3804 20.2882 28.6224 20.6441C28.8645 21 28.9957 21.4196 28.9996 21.85V26.85C28.9973 27.1428 28.9358 27.432 28.8187 27.7004C28.7016 27.9688 28.5315 28.2107 28.3185 28.4115C28.1055 28.6124 27.854 28.7681 27.5792 28.8692C27.3044 28.9704 27.0121 29.0148 26.7196 29C7.58965 27.81 3.72965 11.61 2.99965 5.40998C2.96576 5.10552 2.99672 4.79733 3.09049 4.50569C3.18427 4.21405 3.33873 3.94557 3.54371 3.71792C3.7487 3.49026 3.99956 3.30858 4.2798 3.18484C4.56004 3.0611 4.86331 2.9981 5.16965 2.99998H9.99965C10.4307 3.00126 10.8514 3.13145 11.2078 3.37381C11.5643 3.61617 11.84 3.95962 11.9996 4.35998L13.0896 7.08998C13.2499 7.48305 13.2908 7.91462 13.2072 8.33079C13.1236 8.74696 12.9192 9.12928 12.6196 9.42998L10.3796 11.67C10.3796 11.67 11.6696 20.4 20.3296 21.48Z" fill="#666666"/>
</svg>
