<svg width="24" height="24" viewBox="0 0 24 24" fill="none" xmlns="http://www.w3.org/2000/svg">
<path d="M20.4001 6.6001C20.4001 5.80445 20.084 5.04138 19.5214 4.47878C18.9588 3.91617 18.1957 3.6001 17.4001 3.6001H6.6001C5.80445 3.6001 5.04139 3.91617 4.47878 4.47878C3.91617 5.04138 3.6001 5.80445 3.6001 6.6001V17.4001C3.6001 18.1957 3.91617 18.9588 4.47878 19.5214C5.04139 20.084 5.80445 20.4001 6.6001 20.4001H8.1001C8.09977 19.7946 8.30299 19.2065 8.67712 18.7304C9.05125 18.2543 9.57456 17.9177 10.163 17.7749C10.7514 17.632 11.3708 17.691 11.9216 17.9425C12.4724 18.1941 12.9227 18.6234 13.2001 19.1617C13.4272 18.721 13.7714 18.3513 14.1947 18.0932C14.618 17.8351 15.1043 17.6986 15.6001 17.6986C16.0959 17.6986 16.5821 17.8351 17.0055 18.0932C17.4288 18.3513 17.773 18.721 18.0001 19.1617C18.2263 18.7234 18.5683 18.3555 18.9888 18.0978C19.4094 17.8401 19.8925 17.7026 20.3857 17.7001C20.3953 17.6017 20.4001 17.5009 20.4001 17.4001V6.6001ZM7.2001 8.1001C7.2001 7.6033 7.5793 7.2001 8.0473 7.2001H15.9529C16.4209 7.2001 16.8001 7.6033 16.8001 8.1001C16.8001 8.5969 16.4209 9.0001 15.9529 9.0001H8.0473C7.5793 9.0001 7.2001 8.5969 7.2001 8.1001ZM7.2001 11.7001C7.2001 11.2033 7.5793 10.8001 8.0473 10.8001H12.3529C12.8209 10.8001 13.2001 11.2033 13.2001 11.7001C13.2001 12.1969 12.8209 12.6001 12.3529 12.6001H8.0473C7.5793 12.6001 7.2001 12.1969 7.2001 11.7001ZM8.0473 14.4001H15.9529C16.4209 14.4001 16.8001 14.8033 16.8001 15.3001C16.8001 15.7969 16.4209 16.2001 15.9529 16.2001H8.0473C7.5793 16.2001 7.2001 15.7969 7.2001 15.3001C7.2001 14.8033 7.5793 14.4001 8.0473 14.4001ZM12.3001 20.4001C12.3001 20.7979 12.1421 21.1794 11.8608 21.4607C11.5795 21.742 11.1979 21.9001 10.8001 21.9001C10.4023 21.9001 10.0207 21.742 9.73944 21.4607C9.45813 21.1794 9.3001 20.7979 9.3001 20.4001C9.3001 20.0022 9.45813 19.6207 9.73944 19.3394C10.0207 19.0581 10.4023 18.9001 10.8001 18.9001C11.1979 18.9001 11.5795 19.0581 11.8608 19.3394C12.1421 19.6207 12.3001 20.0022 12.3001 20.4001ZM15.6001 21.9001C15.9979 21.9001 16.3795 21.742 16.6608 21.4607C16.9421 21.1794 17.1001 20.7979 17.1001 20.4001C17.1001 20.0022 16.9421 19.6207 16.6608 19.3394C16.3795 19.0581 15.9979 18.9001 15.6001 18.9001C15.2023 18.9001 14.8207 19.0581 14.5394 19.3394C14.2581 19.6207 14.1001 20.0022 14.1001 20.4001C14.1001 20.7979 14.2581 21.1794 14.5394 21.4607C14.8207 21.742 15.2023 21.9001 15.6001 21.9001ZM20.4001 21.9001C20.7979 21.9001 21.1795 21.742 21.4608 21.4607C21.7421 21.1794 21.9001 20.7979 21.9001 20.4001C21.9001 20.0022 21.7421 19.6207 21.4608 19.3394C21.1795 19.0581 20.7979 18.9001 20.4001 18.9001C20.0023 18.9001 19.6207 19.0581 19.3394 19.3394C19.0581 19.6207 18.9001 20.0022 18.9001 20.4001C18.9001 20.7979 19.0581 21.1794 19.3394 21.4607C19.6207 21.742 20.0023 21.9001 20.4001 21.9001Z" fill="#467AFF"/>
</svg>
