<svg width="80" height="80" viewBox="0 0 80 80" fill="none" xmlns="http://www.w3.org/2000/svg">
<path d="M35.4394 45.893C35.6873 46.1429 35.9822 46.3413 36.3071 46.4767C36.6321 46.6121 36.9806 46.6818 37.3327 46.6818C37.6847 46.6818 38.0332 46.6121 38.3582 46.4767C38.6831 46.3413 38.9781 46.1429 39.226 45.893L49.8925 35.2265C50.1411 34.9778 50.3384 34.6827 50.4729 34.3578C50.6075 34.0329 50.6767 33.6848 50.6767 33.3331C50.6767 32.9815 50.6075 32.6334 50.4729 32.3085C50.3384 31.9836 50.1411 31.6885 49.8925 31.4398C49.6439 31.1912 49.3487 30.994 49.0238 30.8594C48.699 30.7249 48.3508 30.6556 47.9992 30.6556C47.6476 30.6556 47.2994 30.7249 46.9745 30.8594C46.6497 30.994 46.3545 31.1912 46.1059 31.4398L37.3327 40.2397L33.8927 36.7731C33.3906 36.271 32.7095 35.9889 31.9994 35.9889C31.2893 35.9889 30.6082 36.271 30.1061 36.7731C29.604 37.2752 29.3219 37.9563 29.3219 38.6664C29.3219 39.3765 29.604 40.0576 30.1061 40.5597L35.4394 45.893ZM63.999 51.9996H61.3323V25.3333H63.999C64.7062 25.3333 65.3845 25.0523 65.8846 24.5522C66.3846 24.0521 66.6656 23.3739 66.6656 22.6666C66.6656 21.9594 66.3846 21.2811 65.8846 20.781C65.3845 20.2809 64.7062 20 63.999 20H15.9996C15.2924 20 14.6141 20.2809 14.114 20.781C13.614 21.2811 13.333 21.9594 13.333 22.6666C13.333 23.3739 13.614 24.0521 14.114 24.5522C14.6141 25.0523 15.2924 25.3333 15.9996 25.3333H18.6663V51.9996H15.9996C15.2924 51.9996 14.6141 52.2805 14.114 52.7806C13.614 53.2807 13.333 53.9589 13.333 54.6662C13.333 55.3734 13.614 56.0517 14.114 56.5518C14.6141 57.0519 15.2924 57.3328 15.9996 57.3328H37.3327V60.3994L25.1995 68.3993C24.7017 68.7074 24.3192 69.1708 24.1109 69.7179C23.9026 70.265 23.8801 70.8655 24.047 71.4266C24.2138 71.9878 24.5606 72.4784 25.034 72.8229C25.5074 73.1673 26.0809 73.3464 26.6662 73.3326C27.1904 73.3386 27.7034 73.18 28.1328 72.8793L37.3327 66.7993V70.666C37.3327 71.3732 37.6136 72.0515 38.1137 72.5516C38.6138 73.0516 39.2921 73.3326 39.9993 73.3326C40.7065 73.3326 41.3848 73.0516 41.8849 72.5516C42.385 72.0515 42.6659 71.3732 42.6659 70.666V66.7993L51.8658 72.8793C52.2952 73.18 52.8082 73.3386 53.3324 73.3326C53.9022 73.3282 54.4555 73.1414 54.9114 72.7997C55.3672 72.458 55.7017 71.9792 55.8656 71.4336C56.0296 70.8879 56.0146 70.3041 55.8226 69.7677C55.6307 69.2313 55.272 68.7704 54.7991 68.4527L42.6659 60.4528V57.3328H63.999C64.7062 57.3328 65.3845 57.0519 65.8846 56.5518C66.3846 56.0517 66.6656 55.3734 66.6656 54.6662C66.6656 53.9589 66.3846 53.2807 65.8846 52.7806C65.3845 52.2805 64.7062 51.9996 63.999 51.9996ZM55.9991 51.9996H23.9995V25.3333H55.9991V51.9996Z" fill="#467AFF"/>
</svg>
