<svg width="80" height="80" viewBox="0 0 80 80" fill="none" xmlns="http://www.w3.org/2000/svg">
<path fill-rule="evenodd" clip-rule="evenodd" d="M39.5997 9.6665C40.7043 9.6665 41.5997 10.5619 41.5997 11.6665V15.5034H62.2833C62.9786 15.5034 63.6241 15.8646 63.9878 16.4572L67.5703 22.2942C67.9642 22.936 67.9642 23.7447 67.5703 24.3866L63.9878 30.2235C63.6241 30.8162 62.9786 31.1774 62.2833 31.1774H41.5997V65.1178H51.2746C52.3791 65.1178 53.2746 66.0132 53.2746 67.1178C53.2746 68.2224 52.3791 69.1178 51.2746 69.1178H27.9267C26.8221 69.1178 25.9267 68.2224 25.9267 67.1178C25.9267 66.0132 26.8221 65.1178 27.9267 65.1178H37.5997V51.6067H16.9154C16.2201 51.6067 15.5746 51.2456 15.2109 50.6529L11.6284 44.8159C11.2345 44.1741 11.2345 43.3654 11.6284 42.7236L15.2109 36.8866C15.5746 36.294 16.2201 35.9328 16.9154 35.9328H37.5997V29.2162C37.5995 29.2033 37.5994 29.1903 37.5994 29.1774V17.5034C37.5994 17.4904 37.5995 17.4775 37.5997 17.4646V11.6665C37.5997 10.5619 38.4952 9.6665 39.5997 9.6665ZM41.5997 19.5034V27.1774H61.1641L63.5191 23.3404L61.1641 19.5034H41.5997ZM18.0346 39.9328L15.6797 43.7698L18.0346 47.6067H37.5994V39.9328H18.0346Z" fill="#467AFF"/>
<path d="M41.5997 15.5034H41.0997C41.0997 15.7796 41.3236 16.0034 41.5997 16.0034V15.5034ZM63.9878 16.4572L63.5617 16.7188L63.5617 16.7188L63.9878 16.4572ZM67.5703 22.2942L67.9964 22.0327L67.9964 22.0327L67.5703 22.2942ZM67.5703 24.3866L67.9964 24.6481L67.9964 24.6481L67.5703 24.3866ZM63.9878 30.2235L63.5617 29.962L63.5617 29.962L63.9878 30.2235ZM41.5997 31.1774V30.6774C41.3236 30.6774 41.0997 30.9012 41.0997 31.1774H41.5997ZM41.5997 65.1178H41.0997C41.0997 65.3939 41.3236 65.6178 41.5997 65.6178V65.1178ZM37.5997 65.1178V65.6178C37.8759 65.6178 38.0997 65.3939 38.0997 65.1178H37.5997ZM37.5997 51.6067H38.0997C38.0997 51.3306 37.8759 51.1067 37.5997 51.1067V51.6067ZM15.2109 50.6529L14.7847 50.9145L14.7847 50.9145L15.2109 50.6529ZM11.6284 44.8159L11.2023 45.0775L11.2023 45.0775L11.6284 44.8159ZM11.6284 42.7236L11.2023 42.4621L11.2023 42.4621L11.6284 42.7236ZM15.2109 36.8866L15.637 37.1482L15.637 37.1482L15.2109 36.8866ZM37.5997 35.9328V36.4328C37.8759 36.4328 38.0997 36.209 38.0997 35.9328H37.5997ZM37.5997 29.2162L38.0998 29.2162L38.0996 29.2067L37.5997 29.2162ZM37.5997 17.4646L38.0997 17.4741V17.4646H37.5997ZM41.5997 27.1774H41.0997C41.0997 27.4535 41.3236 27.6774 41.5997 27.6774V27.1774ZM41.5997 19.5034V19.0034C41.3236 19.0034 41.0997 19.2273 41.0997 19.5034H41.5997ZM61.1641 27.1774V27.6774C61.338 27.6774 61.4993 27.5871 61.5903 27.4389L61.1641 27.1774ZM63.5191 23.3404L63.9452 23.6019C64.0437 23.4415 64.0437 23.2393 63.9452 23.0788L63.5191 23.3404ZM61.1641 19.5034L61.5903 19.2419C61.4993 19.0937 61.338 19.0034 61.1641 19.0034V19.5034ZM15.6797 43.7698L15.2535 43.5082C15.155 43.6687 15.155 43.8709 15.2535 44.0313L15.6797 43.7698ZM18.0346 39.9328V39.4328C17.8608 39.4328 17.6994 39.5231 17.6085 39.6713L18.0346 39.9328ZM18.0346 47.6067L17.6085 47.8683C17.6994 48.0164 17.8608 48.1067 18.0346 48.1067V47.6067ZM37.5994 47.6067V48.1067C37.8755 48.1067 38.0994 47.8829 38.0994 47.6067H37.5994ZM37.5994 39.9328H38.0994C38.0994 39.6567 37.8755 39.4328 37.5994 39.4328V39.9328ZM42.0997 11.6665C42.0997 10.2858 40.9804 9.1665 39.5997 9.1665V10.1665C40.4282 10.1665 41.0997 10.8381 41.0997 11.6665H42.0997ZM42.0997 15.5034V11.6665H41.0997V15.5034H42.0997ZM62.2833 15.0034H41.5997V16.0034H62.2833V15.0034ZM64.414 16.1957C63.9593 15.4549 63.1525 15.0034 62.2833 15.0034V16.0034C62.8048 16.0034 63.2889 16.2743 63.5617 16.7188L64.414 16.1957ZM67.9964 22.0327L64.414 16.1957L63.5617 16.7188L67.1441 22.5558L67.9964 22.0327ZM67.9964 24.6481C68.4888 23.8458 68.4888 22.835 67.9964 22.0327L67.1441 22.5558C67.4396 23.0371 67.4396 23.6436 67.1441 24.125L67.9964 24.6481ZM64.414 30.4851L67.9964 24.6481L67.1441 24.125L63.5617 29.962L64.414 30.4851ZM62.2833 31.6774C63.1525 31.6774 63.9593 31.2259 64.414 30.4851L63.5617 29.962C63.2889 30.4065 62.8048 30.6774 62.2833 30.6774V31.6774ZM41.5997 31.6774H62.2833V30.6774H41.5997V31.6774ZM42.0997 65.1178V31.1774H41.0997V65.1178H42.0997ZM41.5997 65.6178H51.2746V64.6178H41.5997V65.6178ZM51.2746 65.6178C52.103 65.6178 52.7746 66.2894 52.7746 67.1178H53.7746C53.7746 65.7371 52.6553 64.6178 51.2746 64.6178V65.6178ZM52.7746 67.1178C52.7746 67.9462 52.103 68.6178 51.2746 68.6178V69.6178C52.6553 69.6178 53.7746 68.4985 53.7746 67.1178H52.7746ZM51.2746 68.6178H27.9267V69.6178H51.2746V68.6178ZM27.9267 68.6178C27.0983 68.6178 26.4267 67.9462 26.4267 67.1178H25.4267C25.4267 68.4985 26.546 69.6178 27.9267 69.6178V68.6178ZM26.4267 67.1178C26.4267 66.2894 27.0983 65.6178 27.9267 65.6178V64.6178C26.546 64.6178 25.4267 65.7371 25.4267 67.1178H26.4267ZM27.9267 65.6178H37.5997V64.6178H27.9267V65.6178ZM37.0997 51.6067V65.1178H38.0997V51.6067H37.0997ZM16.9154 52.1067H37.5997V51.1067H16.9154V52.1067ZM14.7847 50.9145C15.2394 51.6553 16.0462 52.1067 16.9154 52.1067V51.1067C16.3939 51.1067 15.9098 50.8359 15.637 50.3914L14.7847 50.9145ZM11.2023 45.0775L14.7847 50.9145L15.637 50.3914L12.0546 44.5544L11.2023 45.0775ZM11.2023 42.4621C10.7099 43.2643 10.7099 44.2752 11.2023 45.0775L12.0546 44.5544C11.7591 44.073 11.7591 43.4665 12.0546 42.9851L11.2023 42.4621ZM14.7847 36.6251L11.2023 42.4621L12.0546 42.9851L15.637 37.1482L14.7847 36.6251ZM16.9154 35.4328C16.0462 35.4328 15.2394 35.8843 14.7847 36.6251L15.637 37.1482C15.9098 36.7037 16.3939 36.4328 16.9154 36.4328V35.4328ZM37.5997 35.4328H16.9154V36.4328H37.5997V35.4328ZM37.0997 29.2162V35.9328H38.0997V29.2162H37.0997ZM37.0994 29.1774C37.0994 29.1935 37.0995 29.2096 37.0998 29.2257L38.0996 29.2067C38.0994 29.1969 38.0994 29.1872 38.0994 29.1774H37.0994ZM37.0994 17.5034V29.1774H38.0994V17.5034H37.0994ZM37.0998 17.455C37.0995 17.4711 37.0994 17.4873 37.0994 17.5034H38.0994C38.0994 17.4936 38.0994 17.4838 38.0996 17.4741L37.0998 17.455ZM37.0997 11.6665V17.4646H38.0997V11.6665H37.0997ZM39.5997 9.1665C38.219 9.1665 37.0997 10.2858 37.0997 11.6665H38.0997C38.0997 10.8381 38.7713 10.1665 39.5997 10.1665V9.1665ZM42.0997 27.1774V19.5034H41.0997V27.1774H42.0997ZM61.1641 26.6774H41.5997V27.6774H61.1641V26.6774ZM63.0929 23.0788L60.738 26.9158L61.5903 27.4389L63.9452 23.6019L63.0929 23.0788ZM60.738 19.765L63.0929 23.6019L63.9452 23.0788L61.5903 19.2419L60.738 19.765ZM41.5997 20.0034H61.1641V19.0034H41.5997V20.0034ZM16.1058 44.0313L18.4607 40.1944L17.6085 39.6713L15.2535 43.5082L16.1058 44.0313ZM18.4607 47.3452L16.1058 43.5082L15.2535 44.0313L17.6085 47.8683L18.4607 47.3452ZM37.5994 47.1067H18.0346V48.1067H37.5994V47.1067ZM37.0994 39.9328V47.6067H38.0994V39.9328H37.0994ZM18.0346 40.4328H37.5994V39.4328H18.0346V40.4328Z" fill="#467AFF"/>
</svg>
