<svg width="20" height="20" viewBox="0 0 20 20" fill="none" xmlns="http://www.w3.org/2000/svg">
<path d="M9.99992 1.66675C8.2433 1.66666 6.55763 2.35988 5.30929 3.59574C4.06094 4.8316 3.35082 6.51022 3.33325 8.26675C3.33325 12.8334 9.20825 17.9168 9.45825 18.1334C9.6092 18.2625 9.80129 18.3335 9.99992 18.3335C10.1985 18.3335 10.3906 18.2625 10.5416 18.1334C10.8333 17.9168 16.6666 12.8334 16.6666 8.26675C16.649 6.51022 15.9389 4.8316 14.6905 3.59574C13.4422 2.35988 11.7565 1.66666 9.99992 1.66675ZM9.99992 10.8334C9.42306 10.8334 8.85915 10.6624 8.37951 10.3419C7.89986 10.0214 7.52603 9.56586 7.30527 9.03291C7.08451 8.49996 7.02675 7.91351 7.13929 7.34773C7.25183 6.78196 7.52962 6.26226 7.93752 5.85435C8.34543 5.44645 8.86513 5.16866 9.4309 5.05612C9.99668 4.94358 10.5831 5.00134 11.1161 5.2221C11.649 5.44285 12.1046 5.81669 12.425 6.29633C12.7455 6.77598 12.9166 7.33988 12.9166 7.91675C12.9166 8.6903 12.6093 9.43216 12.0623 9.97914C11.5153 10.5261 10.7735 10.8334 9.99992 10.8334Z" fill="#467AFF"/>
</svg>
