<svg width="32" height="32" viewBox="0 0 32 32" fill="none" xmlns="http://www.w3.org/2000/svg">
<path d="M8 6C6.93913 6 5.92172 6.42143 5.17157 7.17157C4.42143 7.92172 4 8.93913 4 10V10.402L16 16.864L28 10.404V10C28 8.93913 27.5786 7.92172 26.8284 7.17157C26.0783 6.42143 25.0609 6 24 6H8ZM28 12.674L16.474 18.88C16.3283 18.9584 16.1655 18.9995 16 18.9995C15.8345 18.9995 15.6717 18.9584 15.526 18.88L4 12.674V22C4 23.0609 4.42143 24.0783 5.17157 24.8284C5.92172 25.5786 6.93913 26 8 26H24C25.0609 26 26.0783 25.5786 26.8284 24.8284C27.5786 24.0783 28 23.0609 28 22V12.674Z" fill="#666666"/>
</svg>
