<svg width="16" height="16" viewBox="0 0 16 16" fill="none" xmlns="http://www.w3.org/2000/svg">
<path d="M8.39068 1.72404C8.14069 1.47397 7.8016 1.33345 7.44801 1.33337H2.66668C2.31305 1.33337 1.97392 1.47385 1.72387 1.7239C1.47382 1.97395 1.33334 2.31309 1.33334 2.66671V7.44804C1.33342 7.80163 1.47394 8.14072 1.72401 8.39071L7.05734 13.724C7.30738 13.974 7.64646 14.1144 8.00001 14.1144C8.35356 14.1144 8.69264 13.974 8.94268 13.724L13.724 8.94271C13.974 8.69267 14.1144 8.35359 14.1144 8.00004C14.1144 7.64649 13.974 7.30741 13.724 7.05737L8.39068 1.72404ZM4.66668 6.00004C4.31297 5.99995 3.97378 5.85936 3.72373 5.60918C3.47368 5.35901 3.33326 5.01975 3.33334 4.66604C3.33343 4.31233 3.47403 3.97314 3.7242 3.72309C3.97437 3.47305 4.31363 3.33262 4.66734 3.33271C5.02105 3.3328 5.36024 3.47339 5.61029 3.72357C5.86034 3.97374 6.00077 4.313 6.00068 4.66671C6.00059 5.02042 5.85999 5.35961 5.60982 5.60965C5.35965 5.8597 5.02039 6.00013 4.66668 6.00004Z" fill="#467AFF"/>
</svg>
