<svg width="28" height="28" viewBox="0 0 28 28" fill="none" xmlns="http://www.w3.org/2000/svg">
<path d="M8.80544 25.3757C19.3715 25.3757 25.1507 16.6218 25.1507 9.03044C25.1507 8.7818 25.1507 8.53429 25.1339 8.28788C26.2582 7.47467 27.2287 6.46775 28 5.31428C26.9516 5.77909 25.8394 6.08376 24.7005 6.21812C25.8998 5.50026 26.7973 4.37104 27.2261 3.04068C26.0984 3.70989 24.8647 4.18148 23.5782 4.43508C22.7121 3.51409 21.5666 2.90423 20.3189 2.69988C19.0712 2.49553 17.791 2.70808 16.6763 3.30465C15.5616 3.90121 14.6746 4.84852 14.1525 5.99999C13.6305 7.15146 13.5025 8.44289 13.7883 9.67444C11.5044 9.55987 9.27005 8.96631 7.23036 7.93229C5.19068 6.89826 3.39122 5.44689 1.9488 3.67236C1.21418 4.93703 0.989184 6.43413 1.31962 7.85886C1.65005 9.28358 2.51107 10.5288 3.72736 11.341C2.8131 11.3142 1.91876 11.0676 1.12 10.622V10.6948C1.12036 12.0211 1.57949 13.3065 2.41952 14.3329C3.25954 15.3593 4.42874 16.0635 5.7288 16.3261C4.88306 16.5568 3.99569 16.5905 3.13488 16.4247C3.50212 17.5661 4.21683 18.5642 5.17911 19.2794C6.14139 19.9947 7.30313 20.3914 8.50192 20.4141C7.31084 21.3503 5.94687 22.0425 4.48802 22.4511C3.02917 22.8597 1.50408 22.9766 0 22.7952C2.62714 24.4811 5.68391 25.3753 8.80544 25.3712" fill="#1DA1F2"/>
</svg>
