<svg width="96" height="96" viewBox="0 0 96 96" fill="none" xmlns="http://www.w3.org/2000/svg">
<g clip-path="url(#clip0_1_9310)">
<path d="M56.4903 7.31049L54.9519 7.09486L53.2352 2.77816L52.6754 6.77557L51.1287 6.55994L52.0285 0.136719L53.5752 0.352347L55.2878 4.66905L55.8476 0.671642L57.3902 0.887269L56.4903 7.31049Z" fill="#666666"/>
<path d="M62.4243 6.13714L60.0649 5.4405L59.6253 6.92501L62.4119 7.74606L62.0719 8.89884L57.7883 7.6341L59.6253 1.41406L63.9171 2.68295L63.5771 3.83988L60.7822 3.01468L60.3966 4.32504L62.7561 5.02168L62.4285 6.13299L62.4243 6.13714Z" fill="#666666"/>
<path d="M68.5695 9.18896L71.0161 5.85917L72.4094 6.53922L68.3332 11.7682L66.8735 11.0591L67.7112 7.35612L65.3268 10.3086L63.8713 9.59948L65.4678 3.16382L66.8652 3.84388L65.7539 7.8247L68.3332 4.55711L69.5274 5.13764L68.5612 9.18896H68.5695Z" fill="#666666"/>
<path d="M76.1871 15.9321L74.545 14.5554L73.4793 15.2438L72.198 14.1739L78.1858 10.7239L79.3137 11.6652L76.9916 18.1755L75.702 17.0973L76.1871 15.9238V15.9321ZM75.6066 13.8712L76.6764 14.7669L77.5846 12.594L75.6066 13.8754V13.8712Z" fill="#666666"/>
<path d="M80.844 19.0797L80.2842 18.4452L78.5591 19.9588L77.5266 18.7852L82.399 14.5059L84.0825 16.4216C84.5884 16.998 84.858 17.562 84.887 18.1135C84.916 18.665 84.6962 19.146 84.2277 19.5565C83.8876 19.8551 83.5476 20.0334 83.2034 20.0914C82.8593 20.1495 82.4902 20.0914 82.0963 19.9214L81.0223 22.6665L80.9725 22.7122L79.8653 21.4516L80.8357 19.0755L80.844 19.0797ZM81.1881 17.6491L81.8392 18.3913C82.0341 18.6152 82.2414 18.7313 82.457 18.7396C82.6727 18.7479 82.8883 18.6608 83.0956 18.4784C83.3071 18.2918 83.4191 18.0927 83.4398 17.873C83.4605 17.6532 83.3734 17.4334 83.1785 17.2136L82.5275 16.4714L81.184 17.6491H81.1881Z" fill="#666666"/>
<path d="M88.8012 25.0178L87.748 23.3799L83.3069 26.2369L82.4609 24.9224L86.902 22.0654L85.8695 20.4564L86.8855 19.8013L89.8172 24.3626L88.8012 25.0137V25.0178Z" fill="#666666"/>
<path d="M85.5338 30.3382L84.8413 28.9408L90.655 26.0671L91.3475 27.4646L85.5338 30.3382Z" fill="#666666"/>
<path d="M90.0412 35.8619C89.61 35.9946 89.1912 36.0153 88.7931 35.9199C88.3909 35.8287 88.0342 35.6214 87.7191 35.3062C87.4039 34.9911 87.1593 34.5888 86.9851 34.1037C86.699 33.2992 86.7322 32.5777 87.0888 31.9267C87.4454 31.2756 88.1006 30.7822 89.0543 30.4421L89.357 30.3343C89.9542 30.1187 90.5181 30.0358 91.0406 30.0855C91.5631 30.1311 92.0192 30.3094 92.4049 30.6122C92.7905 30.9149 93.0725 31.3254 93.2591 31.8396C93.5245 32.5818 93.541 33.2453 93.313 33.8341C93.0849 34.423 92.6371 34.8708 91.9736 35.1777L91.447 33.7097C91.816 33.5646 92.0482 33.378 92.1478 33.1416C92.2473 32.9094 92.2307 32.6109 92.1021 32.2501C91.9695 31.8852 91.7372 31.6654 91.4014 31.5908C91.0655 31.5203 90.5969 31.5866 89.9915 31.794L89.5602 31.9474C88.9092 32.1796 88.4738 32.4284 88.2499 32.6938C88.0301 32.9592 87.9886 33.2909 88.1338 33.689C88.254 34.029 88.4282 34.2571 88.6521 34.3774C88.876 34.4976 89.1621 34.5018 89.5146 34.3898L90.0371 35.8536L90.0412 35.8619Z" fill="#666666"/>
<path d="M89.7096 38.9596L90.257 41.6259L89.0793 41.8664L88.2168 37.67L94.5695 36.3638L94.8847 37.8939L89.7096 38.9555V38.9596Z" fill="#666666"/>
<path d="M92.2431 46.7142L92.0648 44.2635L90.5181 44.3755L90.7296 47.274L89.5312 47.3611L89.2078 42.9034L95.6766 42.4348L96 46.9008L94.7975 46.9879L94.586 44.0811L93.2218 44.1806L93.4001 46.6313L92.2431 46.7142Z" fill="#666666"/>
<path d="M88.6936 56.451L88.9092 54.9126L93.2218 53.1917L89.2244 52.6361L89.44 51.0894L95.8632 51.985L95.6476 53.5318L91.335 55.2485L95.3325 55.8041L95.1168 57.3467L88.6936 56.451Z" fill="#666666"/>
<path d="M89.8672 62.3936L90.5638 60.0341L89.0751 59.5946L88.2541 62.3811L87.1013 62.0411L88.3619 57.7576L94.5819 59.5904L93.3172 63.8864L92.1603 63.5464L92.9813 60.7515L91.671 60.3658L90.9743 62.7253L89.863 62.3977L89.8672 62.3936Z" fill="#666666"/>
<path d="M86.8192 68.5434L90.1532 70.99L89.4773 72.3833L84.2441 68.3112L84.9532 66.8516L88.6604 67.6851L85.7079 65.3049L86.4129 63.8494L92.8485 65.4417L92.1685 66.8391L88.1835 65.732L91.4511 68.3112L90.8706 69.5055L86.8192 68.5434Z" fill="#666666"/>
<path d="M80.0932 76.1529L81.4658 74.5067L80.7774 73.441L81.8473 72.1597L85.3015 78.1433L84.3602 79.2712L77.8457 76.9532L78.9238 75.6636L80.0974 76.1488L80.0932 76.1529ZM82.1541 75.5682L81.2626 76.6381L83.4396 77.5421L82.1583 75.5682H82.1541Z" fill="#666666"/>
<path d="M76.9418 80.8222L77.5763 80.2624L76.0627 78.5416L77.2362 77.509L81.5198 82.3814L79.604 84.0649C79.0276 84.575 78.4637 84.8404 77.9122 84.8736C77.3606 84.9026 76.8796 84.6828 76.4691 84.2184C76.1705 83.8783 75.9922 83.5383 75.9342 83.1941C75.8761 82.85 75.9342 82.4809 76.1042 82.087L73.3591 81.013L73.3135 80.9632L74.5699 79.8561L76.946 80.8222H76.9418ZM78.3724 81.1664L77.6302 81.8216C77.4063 82.0165 77.2901 82.2238 77.2819 82.4394C77.2736 82.6551 77.3606 82.8707 77.5431 83.078C77.7297 83.2895 77.9287 83.4015 78.1485 83.4222C78.3683 83.4429 78.5881 83.3559 78.8078 83.161L79.5501 82.5099L78.3724 81.1664Z" fill="#666666"/>
<path d="M71.0204 88.7841L72.6583 87.7309L69.7971 83.2939L71.1116 82.448L73.9728 86.885L75.5776 85.8483L76.2328 86.8642L71.6756 89.8001L71.0204 88.7841Z" fill="#666666"/>
<path d="M65.6919 85.5209L67.0893 84.8284L69.9713 90.6379L68.5738 91.3304L65.6919 85.5209Z" fill="#666666"/>
<path d="M60.1768 90.0324C60.0441 89.6012 60.0234 89.1824 60.1146 88.7843C60.2058 88.3821 60.409 88.0254 60.7242 87.7103C61.0393 87.3952 61.4374 87.1505 61.9267 86.9763C62.727 86.6861 63.4527 86.7234 64.1037 87.08C64.7506 87.4366 65.2482 88.0918 65.5924 89.0455L65.7002 89.3482C65.9158 89.9454 65.9987 90.5052 65.9531 91.0318C65.9075 91.5543 65.7292 92.0104 65.4265 92.3961C65.1238 92.7817 64.7133 93.0678 64.1991 93.2503C63.4568 93.5157 62.7933 93.5364 62.2045 93.3083C61.6157 93.0803 61.1678 92.6366 60.8568 91.9731L62.3248 91.4465C62.4699 91.8155 62.6607 92.0477 62.8929 92.1473C63.1251 92.2468 63.4236 92.2302 63.7844 92.1017C64.1493 91.969 64.3691 91.7367 64.4437 91.4009C64.5184 91.065 64.4479 90.5964 64.2405 89.991L64.0871 89.5597C63.8549 88.9087 63.6061 88.4733 63.3407 88.2535C63.0753 88.0337 62.7436 87.9923 62.3455 88.1374C62.0055 88.2577 61.7774 88.4318 61.6572 88.6557C61.5369 88.8797 61.5328 89.1658 61.6447 89.5183L60.1809 90.0449L60.1768 90.0324Z" fill="#666666"/>
<path d="M57.0709 89.705L54.4046 90.2565L54.1599 89.0788L58.3564 88.2122L59.6667 94.5649L58.1366 94.88L57.0709 89.705Z" fill="#666666"/>
<path d="M49.3207 92.2429L51.7714 92.0646L51.6594 90.5179L48.7651 90.7293L48.678 89.531L53.1357 89.2034L53.6084 95.6722L49.1424 95.9998L49.0553 94.7973L51.9622 94.5858L51.8626 93.2215L49.4119 93.3998L49.329 92.2429H49.3207Z" fill="#666666"/>
<path d="M39.5761 88.7014L41.1145 88.9129L42.8396 93.2254L43.3952 89.228L44.9419 89.4437L44.0504 95.8669L42.5037 95.6513L40.7869 91.3387L40.2313 95.3361L38.6887 95.1205L39.5803 88.6973L39.5761 88.7014Z" fill="#666666"/>
<path d="M33.6461 89.8833L36.0056 90.5758L36.441 89.0871L33.6544 88.2702L33.9945 87.1174L38.2821 88.3739L36.4576 94.5981L32.1616 93.3375L32.5016 92.1805L35.2965 93.0016L35.6822 91.6871L33.3227 90.9946L33.6503 89.8833H33.6461Z" fill="#666666"/>
<path d="M27.4844 86.8395L25.042 90.1734L23.6487 89.4975L27.7166 84.2603L29.1762 84.9693L28.3469 88.6765L30.7271 85.7199L32.1826 86.4248L30.5985 92.8646L29.2011 92.1846L30.3041 88.1996L27.729 91.4713L26.5348 90.8908L27.4968 86.8353L27.4844 86.8395Z" fill="#666666"/>
<path d="M19.871 80.1174L21.5172 81.4899L22.5788 80.7974L23.8601 81.8673L17.8806 85.3256L16.7527 84.3843L19.0624 77.8699L20.352 78.9439L19.8668 80.1174H19.871ZM20.4557 82.1783L19.3858 81.2867L18.4819 83.4638L20.4557 82.1824V82.1783Z" fill="#666666"/>
<path d="M15.1977 76.9699L15.7575 77.6043L17.4784 76.0867L18.5109 77.2602L13.6427 81.5478L11.955 79.6321C11.4449 79.0557 11.1754 78.4917 11.1464 77.9402C11.1174 77.3887 11.333 76.9077 11.8016 76.4972C12.1416 76.1986 12.4816 76.0203 12.8258 75.9623C13.17 75.9042 13.539 75.9623 13.933 76.1281L15.0028 73.383L15.0526 73.3374L16.1597 74.5938L15.1935 76.9699H15.1977ZM14.8535 78.4005L14.1983 77.6583C14.0034 77.4343 13.7961 77.3182 13.5805 77.3099C13.3649 77.3016 13.1492 77.3887 12.9419 77.5753C12.7304 77.7619 12.6185 77.961 12.5977 78.1807C12.577 78.4005 12.6641 78.6203 12.859 78.8401L13.5141 79.5823L14.8535 78.4005Z" fill="#666666"/>
<path d="M7.23591 71.0607L8.29332 72.6945L12.7261 69.8291L13.5762 71.1436L9.14339 74.009L10.1801 75.6137L9.16412 76.2689L6.22412 71.7158L7.24006 71.0607H7.23591Z" fill="#666666"/>
<path d="M10.4953 65.7319L11.1878 67.1294L5.37829 70.0155L4.68579 68.618L10.4953 65.7319Z" fill="#666666"/>
<path d="M5.97532 60.2124C6.40657 60.0797 6.82539 60.059 7.22347 60.1502C7.6257 60.2415 7.98232 60.4446 8.29746 60.7598C8.61261 61.0749 8.85727 61.473 9.03143 61.9623C9.3217 62.7626 9.28438 63.4883 8.92776 64.1393C8.57115 64.7904 7.91597 65.2838 6.96223 65.628L6.65952 65.7358C6.0624 65.9514 5.5026 66.0344 4.97597 65.9888C4.45348 65.9432 3.99735 65.769 3.61171 65.4621C3.22606 65.1594 2.93994 64.7489 2.75749 64.2347C2.4921 63.4925 2.47137 62.829 2.69943 62.2402C2.9275 61.6513 3.3712 61.1993 4.03467 60.8925L4.5613 62.3604C4.19224 62.5056 3.96003 62.6963 3.86051 62.9285C3.76099 63.1649 3.77757 63.4593 3.90612 63.82C4.03882 64.185 4.27103 64.4047 4.60691 64.4752C4.94279 64.5457 5.41137 64.4752 6.01679 64.272L6.44804 64.1145C7.09907 63.8781 7.53447 63.6293 7.75425 63.3681C7.97402 63.1068 8.01134 62.7709 7.87036 62.3729C7.7501 62.037 7.57594 61.8048 7.35202 61.6845C7.1281 61.5643 6.84198 61.5601 6.48951 61.6721L5.96288 60.2083L5.97532 60.2124Z" fill="#666666"/>
<path d="M6.29885 57.1063L5.74734 54.44L6.925 54.1953L7.79581 58.3918L1.44308 59.7063L1.12793 58.1761L6.303 57.1063H6.29885Z" fill="#666666"/>
<path d="M3.7569 49.3644L3.93935 51.8151L5.48607 51.699L5.27044 48.8046L6.46884 48.7175L6.80057 53.1711L0.331735 53.6521L0 49.1861L1.20254 49.0949L1.41817 52.0017L2.78243 51.9022L2.59997 49.4515L3.7569 49.3644Z" fill="#666666"/>
<path d="M7.28999 39.6191L7.07851 41.1575L2.76595 42.8867L6.76336 43.4382L6.55188 44.989L0.124512 44.1017L0.335993 42.5508L4.64855 40.8299L0.651141 40.2784L0.862622 38.7358L7.28999 39.6191Z" fill="#666666"/>
<path d="M6.0998 33.685L5.41145 36.0444L6.90011 36.4798L7.71701 33.6932L8.86979 34.0291L7.61749 38.3168L1.39331 36.4964L2.64976 32.2004L3.80668 32.5405L2.98979 35.3353L4.30429 35.721L4.99264 33.3615L6.10395 33.685H6.0998Z" fill="#666666"/>
<path d="M9.14355 27.5144L5.80546 25.072L6.48137 23.6746L11.7186 27.7383L11.0137 29.198L7.30656 28.3686L10.2632 30.7447L9.55822 32.2002L3.11841 30.6203L3.79432 29.2228L7.77929 30.3258L4.50755 27.7508L5.08394 26.5565L9.1394 27.5144H9.14355Z" fill="#666666"/>
<path d="M15.8611 19.8966L14.4885 21.5429L15.181 22.6044L14.1112 23.8899L10.6487 17.9145L11.59 16.7825L18.1086 19.088L17.0346 20.3776L15.8611 19.8925V19.8966ZM13.8002 20.4855L14.6917 19.4156L12.5147 18.5158L13.8002 20.4896V20.4855Z" fill="#666666"/>
<path d="M19.0001 15.223L18.3656 15.7828L19.8833 17.5037L18.7098 18.5362L14.418 13.6722L16.3337 11.9845C16.9101 11.4744 17.4741 11.2049 18.0256 11.1759C18.5771 11.1427 19.0581 11.3625 19.4686 11.831C19.7672 12.1711 19.9455 12.5111 20.0036 12.8511C20.0616 13.1912 20.0036 13.5644 19.8377 13.9583L22.5869 15.024L22.6326 15.0738L21.3761 16.1809L19.0001 15.2189V15.223ZM17.5695 14.883L18.3117 14.2278C18.5356 14.0329 18.6517 13.8256 18.66 13.61C18.6683 13.3944 18.5812 13.1787 18.3946 12.9714C18.208 12.7641 18.009 12.6479 17.7892 12.6272C17.5695 12.6065 17.3497 12.6977 17.1299 12.8885L16.3876 13.5436L17.5695 14.883Z" fill="#666666"/>
<path d="M24.9092 7.25276L23.2754 8.31016L26.1407 12.743L24.8262 13.593L21.9609 9.16024L20.3561 10.1969L19.7009 9.18512L24.254 6.24097L24.9092 7.25276Z" fill="#666666"/>
<path d="M30.2376 10.508L28.8402 11.2046L25.95 5.39928L27.3474 4.70264L30.2376 10.508Z" fill="#666666"/>
<path d="M35.7528 5.98363C35.8855 6.41488 35.9062 6.82955 35.815 7.23178C35.7238 7.63401 35.5206 7.99062 35.2054 8.30577C34.8903 8.62092 34.4922 8.86558 34.0071 9.04388C33.2067 9.33415 32.4811 9.30098 31.83 8.94436C31.179 8.58775 30.6856 7.93257 30.3414 6.98298L30.2336 6.68027C30.0179 6.08315 29.935 5.52334 29.9806 4.99672C30.0262 4.47423 30.2004 4.0181 30.5031 3.63245C30.8058 3.24681 31.2122 2.96069 31.7264 2.77409C32.4645 2.5087 33.1321 2.48797 33.7209 2.71604C34.3098 2.9441 34.7618 3.3878 35.0686 4.05127L33.6007 4.58205C33.4555 4.21299 33.2648 3.98078 33.0326 3.88126C32.7962 3.78174 32.5018 3.79832 32.141 3.92687C31.7761 4.05956 31.5564 4.29178 31.4859 4.62766C31.4154 4.96354 31.4859 5.43212 31.6932 6.03753L31.8508 6.46879C32.0871 7.11982 32.3359 7.55522 32.6013 7.775C32.8667 7.99477 33.1984 8.03209 33.5965 7.8911C33.9324 7.77085 34.1646 7.59669 34.2849 7.37277C34.4051 7.14885 34.4093 6.86273 34.2973 6.51026L35.7611 5.98363H35.7528Z" fill="#666666"/>
<path d="M38.8585 6.30715L41.5248 5.75149L41.7695 6.92915L37.573 7.79996L36.2544 1.45138L37.7845 1.13208L38.8585 6.303V6.30715Z" fill="#666666"/>
<path d="M46.5963 3.7569L44.1456 3.93935L44.2617 5.48607L47.1561 5.27044L47.2473 6.46883L42.7938 6.80472L42.3086 0.335882L46.7746 0L46.8658 1.20254L43.959 1.42231L44.0626 2.78657L46.5133 2.60412L46.6004 3.76105L46.5963 3.7569Z" fill="#666666"/>
</g>
<defs>
<clipPath id="clip0_1_9310">
<rect width="96" height="96" fill="white"/>
</clipPath>
</defs>
</svg>
