<svg width="1224" height="212" viewBox="0 0 1224 212" fill="none" xmlns="http://www.w3.org/2000/svg">
<path d="M45.5527 129.824L33.5449 144.938V188H3.11133V37.2812H33.5449V103.014L43.1719 86.7617L71.2246 37.2812H108.49L65.3242 103.531L109.215 188H73.0879L45.5527 129.824Z" fill="#FDFBF4"/>
<path d="M198.342 122.785H150.932V162.742H207.037V188H120.498V37.2812H206.83V62.6426H150.932V98.252H198.342V122.785Z" fill="#FDFBF4"/>
<path d="M302.479 122.785H255.068V162.742H311.174V188H224.635V37.2812H310.967V62.6426H255.068V98.252H302.479V122.785Z" fill="#FDFBF4"/>
<path d="M359.205 135V188H328.771V37.2812H380.115C395.021 37.2812 406.891 41.9049 415.725 51.1523C424.627 60.3997 429.078 72.4076 429.078 87.1758C429.078 101.944 424.696 113.607 415.932 122.164C407.167 130.721 395.021 135 379.494 135H359.205ZM359.205 109.639H380.115C385.912 109.639 390.398 107.741 393.572 103.945C396.747 100.15 398.334 94.6289 398.334 87.3828C398.334 79.8607 396.712 73.8913 393.469 69.4746C390.225 64.9889 385.878 62.7116 380.426 62.6426H359.205V109.639Z" fill="#FDFBF4"/>
<path d="M561.992 148.457C561.992 142.315 560.405 137.691 557.23 134.586C554.125 131.411 548.432 128.133 540.15 124.752C525.037 119.024 514.168 112.33 507.543 104.67C500.918 96.9408 497.605 87.8314 497.605 77.3418C497.605 64.6439 502.091 54.4648 511.062 46.8047C520.103 39.0755 531.559 35.2109 545.43 35.2109C554.677 35.2109 562.924 37.1777 570.17 41.1113C577.416 44.9759 582.971 50.4622 586.836 57.5703C590.77 64.6784 592.736 72.7526 592.736 81.793H562.406C562.406 74.7539 560.888 69.4056 557.852 65.748C554.884 62.0215 550.571 60.1582 544.912 60.1582C539.598 60.1582 535.458 61.7454 532.49 64.9199C529.523 68.0254 528.039 72.235 528.039 77.5488C528.039 81.6895 529.695 85.4505 533.008 88.832C536.32 92.1445 542.186 95.5951 550.605 99.1836C565.305 104.497 575.967 111.019 582.592 118.748C589.286 126.477 592.633 136.311 592.633 148.25C592.633 161.362 588.458 171.61 580.107 178.994C571.757 186.378 560.405 190.07 546.051 190.07C536.32 190.07 527.452 188.069 519.447 184.066C511.442 180.064 505.162 174.336 500.607 166.883C496.122 159.43 493.879 150.631 493.879 140.486H524.416C524.416 149.182 526.107 155.496 529.488 159.43C532.87 163.363 538.391 165.33 546.051 165.33C556.678 165.33 561.992 159.706 561.992 148.457Z" fill="#FDFBF4"/>
<path d="M652.568 37.2812L681.035 146.283L709.398 37.2812H749.148V188H718.611V147.215L721.406 84.3809L691.283 188H670.58L640.457 84.3809L643.252 147.215V188H612.818V37.2812H652.568Z" fill="#FDFBF4"/>
<path d="M805.461 188H775.027V37.2812H805.461V188Z" fill="#FDFBF4"/>
<path d="M861.463 162.742H914.877V188H831.029V37.2812H861.463V162.742Z" fill="#FDFBF4"/>
<path d="M964.254 188H933.82V37.2812H964.254V188Z" fill="#FDFBF4"/>
<path d="M1095.2 188H1064.77L1020.26 89.1426V188H989.822V37.2812H1020.26L1064.87 136.242V37.2812H1095.2V188Z" fill="#FDFBF4"/>
<path d="M1222.11 170.92C1216.25 177.269 1209.03 182.065 1200.48 185.309C1191.99 188.483 1182.67 190.07 1172.53 190.07C1155.21 190.07 1141.75 184.722 1132.16 174.025C1122.56 163.26 1117.63 147.629 1117.35 127.133V100.012C1117.35 79.2396 1121.87 63.2637 1130.91 52.084C1140.02 40.8353 1153.27 35.2109 1170.66 35.2109C1187.02 35.2109 1199.34 39.248 1207.62 47.3223C1215.97 55.3965 1220.8 68.0599 1222.11 85.3125H1192.51C1191.68 75.7201 1189.68 69.1986 1186.5 65.748C1183.33 62.2285 1178.36 60.4688 1171.6 60.4688C1163.38 60.4688 1157.41 63.4707 1153.69 69.4746C1149.96 75.4785 1148.03 85.0365 1147.89 98.1484V125.477C1147.89 139.21 1149.93 149.216 1154 155.496C1158.14 161.707 1164.9 164.812 1174.29 164.812C1180.29 164.812 1185.16 163.605 1188.88 161.189L1191.57 159.326V131.688H1170.25V108.707H1222.11V170.92Z" fill="#FDFBF4"/>
</svg>
